<svg width="19" height="24" viewBox="0 0 19 24" fill="none" xmlns="http://www.w3.org/2000/svg">
<g clip-path="url(#clip0_2011_27)">
<path d="M5.83564 10.578C5.87627 10.8186 6.08564 10.9999 6.33564 10.9999H6.85127C7.15752 10.9999 7.40127 10.7343 7.36064 10.4374C7.24189 9.55613 6.84814 8.74363 6.21689 8.103C5.76689 7.64363 5.47939 7.06238 5.39189 6.43113C5.35752 6.18425 5.14502 5.99988 4.88877 5.99988H4.37627C4.07002 5.99988 3.83252 6.2655 3.86689 6.56238C3.98877 7.55925 4.42939 8.478 5.13564 9.19988C5.51064 9.58113 5.75127 10.0593 5.83564 10.578ZM9.33564 10.578C9.37627 10.8186 9.58564 10.9999 9.83564 10.9999H10.3513C10.6575 10.9999 10.9013 10.7343 10.8606 10.4374C10.7419 9.55613 10.3481 8.74363 9.71689 8.103C9.26689 7.64363 8.97939 7.06238 8.89189 6.43113C8.85752 6.18425 8.64502 5.99988 8.38877 5.99988H7.87627C7.57002 5.99988 7.32939 6.2655 7.36689 6.56238C7.48877 7.55925 7.92939 8.478 8.63564 9.19988C9.01064 9.58113 9.25127 10.0593 9.33564 10.578ZM14.3638 11.9999H2.86377C2.31064 11.9999 1.86377 12.4468 1.86377 12.9999V18.9999C1.86377 20.6561 3.20752 21.9999 4.86377 21.9999H10.8638C12.52 21.9999 13.8638 20.6561 13.8638 18.9999H14.3638C16.295 18.9999 17.8638 17.4311 17.8638 15.4999C17.8638 13.5686 16.295 11.9999 14.3638 11.9999ZM14.3638 16.9999H13.8638V13.9999H14.3638C15.1919 13.9999 15.8638 14.6718 15.8638 15.4999C15.8638 16.328 15.1919 16.9999 14.3638 16.9999Z" fill="#9CA3AF"/>
</g>
<defs>
<clipPath id="clip0_2011_27">
<rect width="16" height="16" fill="white" transform="translate(1.86377 5.99988)"/>
</clipPath>
</defs>
</svg>
