<svg width="18" height="24" viewBox="0 0 18 24" fill="none" xmlns="http://www.w3.org/2000/svg">
<path d="M15.3553 10.741C15.3655 10.8831 15.3655 11.0253 15.3655 11.1674C15.3655 15.5024 12.066 20.4973 6.03553 20.4973C4.17766 20.4973 2.45178 19.9593 1 19.0253C1.26397 19.0557 1.51775 19.0659 1.79188 19.0659C3.32484 19.0659 4.73603 18.5481 5.86294 17.6649C4.42131 17.6344 3.21319 16.6903 2.79694 15.3908C3 15.4212 3.20303 15.4415 3.41625 15.4415C3.71066 15.4415 4.00509 15.4009 4.27919 15.3298C2.77666 15.0253 1.64972 13.7055 1.64972 12.1116V12.071C2.08625 12.3146 2.59391 12.4669 3.13194 12.4872C2.24869 11.8983 1.67003 10.8933 1.67003 9.75622C1.67003 9.1471 1.83244 8.58872 2.11672 8.10141C3.73094 10.0913 6.15734 11.3907 8.87813 11.5329C8.82738 11.2892 8.79691 11.0354 8.79691 10.7816C8.79691 8.9745 10.2588 7.50244 12.0761 7.50244C13.0202 7.50244 13.873 7.89838 14.472 8.53797C15.2131 8.39585 15.9238 8.12172 16.5533 7.7461C16.3096 8.50754 15.7918 9.14713 15.1116 9.55319C15.7715 9.48216 16.4111 9.29938 16.9999 9.0456C16.5533 9.69532 15.9949 10.274 15.3553 10.741Z" fill="#3B82F6"/>
</svg>
